Coordinates
version=1
nRows=17
nColumns=40
inDegrees=yes

Units are S.I. units (second, meters, Newtons, ...)
If the header above contains a line with 'inDegrees', this indicates whether rotational values are in degrees (yes) or radians (no).

endheader
time	pelvis_tilt	pelvis_list	pelvis_rotation	pelvis_tx	pelvis_ty	pelvis_tz	hip_flexion_r	hip_adduction_r	hip_rotation_r	knee_angle_r	knee_angle_r_beta	ankle_angle_r	subtalar_angle_r	mtp_angle_r	hip_flexion_l	hip_adduction_l	hip_rotation_l	knee_angle_l	knee_angle_l_beta	ankle_angle_l	subtalar_angle_l	mtp_angle_l	lumbar_extension	lumbar_bending	lumbar_rotation	arm_flex_r	arm_add_r	arm_rot_r	elbow_flex_r	pro_sup_r	wrist_flex_r	wrist_dev_r	arm_flex_l	arm_add_l	arm_rot_l	elbow_flex_l	pro_sup_l	wrist_flex_l	wrist_dev_l
      5.11500000	    -10.96944036	      3.53296094	     -3.88337285	     -0.12790494	      1.32131634	     -0.88714453	     -1.41770316	     -6.38078058	    -29.16273805	      1.80350130	      0.03147704	    -27.49567435	      0.00000000	      0.00000000	      0.14324359	      2.59146974	    -16.83212783	      5.68071031	      0.09914710	    -39.36978582	      0.00000000	      0.00000000	      0.56329066	     -2.47005595	     -1.53836002	    -48.14062375	    -35.51744997	     -8.74276484	    125.37669856	     87.65385422	      0.00000000	      0.00000000	    -53.16789041	    -29.99973648	     -7.33084082	    121.59707232	     88.10138515	      0.00000000	      0.00000000
      5.12000000	    -10.69834193	      3.77105230	     -3.97487343	     -0.12682625	      1.32781627	     -0.88661806	     -1.72725820	     -6.80426992	    -28.26959328	      2.04636140	      0.03571574	    -28.05634292	      0.00000000	      0.00000000	     -0.36139241	      2.62543488	    -15.95080015	      5.79921869	      0.10121546	    -39.32938912	      0.00000000	      0.00000000	      0.54043823	     -2.85418148	     -1.42499305	    -47.49922758	    -35.50593905	     -7.96177953	    124.82125067	     87.68075819	      0.00000000	      0.00000000	    -52.76281873	    -30.51900775	     -6.93453142	    121.67619759	     88.11446781	      0.00000000	      0.00000000
      5.12500000	    -10.37601777	      3.87363935	     -4.17987032	     -0.12561934	      1.33384960	     -0.88597420	     -2.21946093	     -7.02647045	    -27.05986780	      1.95699569	      0.03415602	    -28.23290835	      0.00000000	      0.00000000	     -1.20775720	      2.52081458	    -15.36114547	      5.43451428	      0.09485017	    -39.36128267	      0.00000000	      0.00000000	      0.48668312	     -3.06304205	     -1.35935103	    -46.84656577	    -35.84583870	     -7.07170219	    124.46293075	     87.66553377	      0.00000000	      0.00000000	    -52.46450814	    -30.94006173	     -6.50984516	    121.76887227	     88.09957408	      0.00000000	      0.00000000
      5.13000000	    -10.05741166	      3.73443513	     -4.46349124	     -0.12448523	      1.33949025	     -0.88516074	     -2.55432429	     -7.07536593	    -26.25021909	      2.13154921	      0.03720255	    -28.40098370	      0.00000000	      0.00000000	     -1.85629467	      2.06516598	    -15.35105638	      5.45702702	      0.09524309	    -39.35256392	      0.00000000	      0.00000000	      0.34937931	     -3.01894903	     -1.16900711	    -46.44568695	    -36.12149835	     -6.57946280	    124.32450000	     87.68537970	      0.00000000	      0.00000000	    -52.13366178	    -31.26408788	     -6.38299495	    122.06676138	     88.09119770	      0.00000000	      0.00000000
      5.13500000	     -9.60178991	      3.69052496	     -4.92658132	     -0.12336831	      1.34508693	     -0.88420266	     -3.19192101	     -7.15120866	    -24.86069981	      1.78823281	      0.03121055	    -28.40277804	      0.00000000	      0.00000000	     -2.75798673	      1.73721051	    -16.32615973	      5.20308619	      0.09081099	    -39.36238635	      0.00000000	      0.00000000	      0.08662759	     -3.15204995	     -1.46981882	    -44.94750666	    -37.26887751	     -4.90255949	    123.87884684	     87.63591938	      0.00000000	      0.00000000	    -52.60631499	    -30.87237061	     -6.62270533	    122.22634135	     88.09686051	      0.00000000	      0.00000000
      5.14000000	     -9.34777478	      3.47202110	     -5.35352964	     -0.12246542	      1.35022736	     -0.88308223	     -3.50615009	     -7.08614511	    -24.15771419	      1.65504425	      0.02888597	    -28.37679813	      0.00000000	      0.00000000	     -3.34129711	      1.11473057	    -16.94428042	      5.12954602	      0.08952747	    -39.36439456	      0.00000000	      0.00000000	      0.00969437	     -3.01108731	     -1.17881809	    -44.37247265	    -37.64594492	     -4.23952749	    123.75213717	     87.65325717	      0.00000000	      0.00000000	    -52.23255632	    -31.33828904	     -6.19383685	    122.35250197	     88.08480440	      0.00000000	      0.00000000
      5.14500000	     -9.07716677	      3.32707559	     -5.76775122	     -0.12170723	      1.35527321	     -0.88213362	     -3.85014560	     -7.12228289	    -23.56774772	      1.41873144	      0.02476153	    -28.34150519	      0.00000000	      0.00000000	     -3.95608911	      0.58154006	    -17.95190799	      4.98818352	      0.08706023	    -39.36962057	      0.00000000	      0.00000000	     -0.08014006	     -2.95223076	     -0.94930494	    -43.72520200	    -38.05641314	     -3.61663423	    123.61192694	     87.64889374	      0.00000000	      0.00000000	    -51.89734077	    -31.73789381	     -5.76682142	    122.32903016	     88.07980652	      0.00000000	      0.00000000
      5.15000000	     -8.92429234	      3.20710776	     -6.08351540	     -0.12100528	      1.35998114	     -0.88134200	     -4.05286592	     -7.19972557	    -23.34470696	      1.25743170	      0.02194632	    -28.21047201	      0.00000000	      0.00000000	     -4.43325620	      0.04997577	    -18.86650035	      4.80864894	      0.08392676	    -39.36085911	      0.00000000	      0.00000000	     -0.05363561	     -2.90931062	     -0.81349478	    -43.09119700	    -38.39778444	     -3.02608396	    123.44899094	     87.64785003	      0.00000000	      0.00000000	    -51.59268985	    -32.19556916	     -5.34568069	    122.29302046	     88.08283293	      0.00000000	      0.00000000
      5.15500000	     -8.89859576	      3.11248478	     -6.31603891	     -0.12058583	      1.36434208	     -0.88037938	     -4.09667535	     -7.28594793	    -23.42670417	      1.14842348	      0.02004377	    -28.05293371	      0.00000000	      0.00000000	     -4.71315043	     -0.51823028	    -19.76118338	      4.68761472	      0.08181431	    -39.36515129	      0.00000000	      0.00000000	      0.07463706	     -2.94010929	     -0.75611397	    -42.42507209	    -38.62816846	     -2.48455051	    123.27696173	     87.63923516	      0.00000000	      0.00000000	    -51.25921261	    -32.68250051	     -5.01320615	    122.21932808	     88.06968457	      0.00000000	      0.00000000
      5.16000000	     -8.89984658	      3.15598783	     -6.29208372	     -0.12081644	      1.36862779	     -0.87990137	     -4.08739861	     -7.53412231	    -23.65117997	      1.08962794	      0.01901760	    -27.95712755	      0.00000000	      0.00000000	     -4.83189851	     -0.97286908	    -20.08999255	      4.59031778	      0.08011616	    -39.34985580	      0.00000000	      0.00000000	      0.11223124	     -3.11264213	     -0.95060286	    -41.86674358	    -38.61791325	     -2.40500614	    123.28384722	     87.63017602	      0.00000000	      0.00000000	    -50.88687138	    -33.10738342	     -4.94677099	    122.15931312	     88.06475118	      0.00000000	      0.00000000
      5.16500000	     -9.00934990	      3.13114728	     -6.21451750	     -0.12006633	      1.37251750	     -0.87914237	     -4.04599045	     -7.66634134	    -24.48966857	      1.06357421	      0.01856287	    -27.78991338	      0.00000000	      0.00000000	     -4.97512068	     -1.47683326	    -21.01470140	      4.31380494	      0.07529010	    -39.33845357	      0.00000000	      0.00000000	      0.44625024	     -3.22702501	     -1.13944043	    -41.32966270	    -38.61733315	     -1.75247143	    122.95142652	     87.63114920	      0.00000000	      0.00000000	    -50.50589250	    -33.78603665	     -4.34233144	    121.87935937	     88.08018828	      0.00000000	      0.00000000
      5.17000000	     -9.14509709	      3.25257488	     -6.00588983	     -0.12004004	      1.37627965	     -0.87851349	     -3.95887571	     -7.94584585	    -24.90787166	      1.02239548	      0.01784417	    -27.74931697	      0.00000000	      0.00000000	     -4.90655723	     -1.87668506	    -21.28137163	      4.20289898	      0.07335443	    -39.33372149	      0.00000000	      0.00000000	      0.65294598	     -3.52867547	     -1.52853140	    -40.88734634	    -38.39625674	     -1.68522118	    122.96751709	     87.62230812	      0.00000000	      0.00000000	    -50.22420452	    -34.30827686	     -4.28932424	    121.71504617	     88.06722238	      0.00000000	      0.00000000
      5.17500000	     -9.26146267	      3.46629571	     -5.69704363	     -0.12045390	      1.37996879	     -0.87796134	     -3.79306408	     -8.34064692	    -26.30898759	      1.13895448	      0.01987851	    -27.73093147	      0.00000000	      0.00000000	     -4.67472819	     -2.19490241	    -21.52775071	      4.36194925	      0.07613038	    -39.37641783	      0.00000000	      0.00000000	      0.86747098	     -3.96360489	     -1.87587451	    -40.30082916	    -38.11846885	     -1.21316186	    122.59425770	     87.62285871	      0.00000000	      0.00000000	    -49.60318769	    -35.10805447	     -3.70013182	    121.33200609	     88.06520251	      0.00000000	      0.00000000
      5.18000000	     -9.51637254	      3.55234835	     -5.31359199	     -0.11995071	      1.38314434	     -0.87755712	     -3.57392347	     -8.56721512	    -27.40538370	      1.25352934	      0.02187821	    -27.61021293	      0.00000000	      0.00000000	     -4.44006098	     -2.60392483	    -21.65367019	      4.26436659	      0.07442724	    -39.33879498	      0.00000000	      0.00000000	      1.27677736	     -4.15939699	     -1.60193108	    -41.21521554	    -37.12862244	     -2.19288396	    122.69566526	     87.61677106	      0.00000000	      0.00000000	    -48.21448054	    -36.59023479	     -2.27237836	    120.79841399	     88.02811322	      0.00000000	      0.00000000
      5.18500000	     -9.57451601	      3.69859474	     -5.01449325	     -0.12010610	      1.38623546	     -0.87701396	     -3.58206630	     -8.84468206	    -27.92397679	      1.23341332	      0.02152712	    -27.48482906	      0.00000000	      0.00000000	     -4.35903539	     -2.87907213	    -21.77653699	      4.20301422	      0.07335644	    -39.34433803	      0.00000000	      0.00000000	      1.32109710	     -4.53856309	     -2.06009369	    -40.91017948	    -36.82775664	     -2.04231012	    122.81674608	     87.62337554	      0.00000000	      0.00000000	    -47.95224728	    -37.00797675	     -2.25975471	    120.60046728	     88.02592299	      0.00000000	      0.00000000
      5.19000000	     -9.64467429	      3.92999080	     -4.60628782	     -0.12029596	      1.38921060	     -0.87663503	     -3.45220926	     -9.23699187	    -29.27058119	      1.44643899	      0.02524512	    -27.25639389	      0.00000000	      0.00000000	     -4.15957229	     -3.07193096	    -21.53225519	      4.28749235	      0.07483086	    -39.34904185	      0.00000000	      0.00000000	      1.46031955	     -5.01333711	     -2.43429692	    -40.67053861	    -36.58297875	     -1.79522005	    122.63569746	     87.63428779	      0.00000000	      0.00000000	    -47.35677306	    -37.75510326	     -1.74162250	    120.23835965	     88.03093524	      0.00000000	      0.00000000
      5.19500000	     -9.67340967	      4.13305380	     -4.31854723	     -0.12048304	      1.39190281	     -0.87608483	     -3.42230604	     -9.56285898	    -29.89623117	      1.48701866	      0.02595337	    -27.23196123	      0.00000000	      0.00000000	     -4.04834342	     -3.23669415	    -21.41722046	      4.26090591	      0.07436684	    -39.34697887	      0.00000000	      0.00000000	      1.47075126	     -5.45920233	     -2.76728876	    -40.51313717	    -36.29049781	     -1.57796628	    122.66061539	     87.63808154	      0.00000000	      0.00000000	    -46.95103110	    -38.27146323	     -1.44841438	    119.94069913	     88.03365694	      0.00000000	      0.00000000
